# AST/ASF file generated using VICON BodyLanguage
# -----------------------------------------------
:version 1.10
:name VICON
:units
  mass 1.0
  length 0.45
  angle deg
:documentation
   .ast/.asf automatically generated from VICON data using
   VICON BodyBuilder and BodyLanguage model FoxedUp or BRILLIANT.MOD
:root
   order TX TY TZ RX RY RZ
   axis XYZ
   position 0 0 0  
   orientation 0 0 0 
:bonedata
  begin
     id 1 
     name lhipjoint
     direction 0.677091 -0.635792 0.370561 
     length 2.74323 
     axis 0 0 0  XYZ
  end
  begin
     id 2 
     name lfemur
     direction 0.34202 -0.939693 0  
     length 7.44995  
     axis 0 0 20  XYZ
    dof rx ry rz
    limits (-160.0 20.0)
           (-70.0 70.0)
           (-60.0 70.0)
  end
  begin
     id 3 
     name ltibia
     direction 0.34202 -0.939693 0   
     length 7.34467   
     axis 0 0 20   XYZ
    dof rx
    limits (-10.0 170.0)
  end
  begin
     id 4 
     name lfoot
     direction 0.101953 -0.280114 0.954537   
     length 1.72105   
     axis -90 7.62852e-016 20   XYZ
    dof rx rz
    limits (-45.0 90.0)
           (-70.0 20.0)
  end
  begin
     id 5 
     name ltoes
     direction 1.53537e-011 -4.21915e-011 1   
     length 0.865872   
     axis -90 7.62852e-016 20   XYZ
    dof rx
    limits (-90.0 20.0)
  end
  begin
     id 6 
     name rhipjoint
     direction -0.695735 -0.620586 0.361699   
     length 2.81045  
     axis 0 0 0  XYZ 
  end
  begin
     id 7 
     name rfemur
     direction -0.34202 -0.939693 0   
     length 7.29387   
     axis 0 0 -20   XYZ
    dof rx ry rz
    limits (-160.0 20.0)
           (-70.0 70.0)
           (-70.0 60.0)
  end
  begin
     id 8 
     name rtibia
     direction -0.34202 -0.939693 0   
     length 7.44935   
     axis 0 0 -20   XYZ
    dof rx
    limits (-10.0 170.0)
 end
 begin
     id 9 
     name rfoot
     direction -0.104163 -0.286184 0.952496   
     length 1.77731  
     axis -90 -7.62852e-016 -20   XYZ
    dof rx rz
    limits (-45.0 90.0)
           (-20.0 70.0)
  end
  begin
     id 10 
     name rtoes
     direction -1.5355e-011 -4.21888e-011 1   
     length 0.892424   
     axis -90 -7.62852e-016 -20   XYZ
    dof rx
    limits (-90.0 20.0)
  end
  begin
     id 11 
     name lowerback
     direction 0.0100202 0.997226 -0.0737589   
     length 2.16892   
     axis 0 0 0   XYZ
    dof rx ry rz
    limits (-20.0 45.0)
           (-30.0 30.0)
           (-30.0 30.0)
  end
  begin
     id 12 
     name upperback
     direction 0.00432398 0.999988 -0.00215019   
     length 2.17326   
     axis 0 0 0   XYZ
    dof rx ry rz
    limits (-20.0 45.0)
           (-30.0 30.0)
           (-30.0 30.0)
  end
  begin
     id 13 
     name thorax
     direction -0.00195047 0.999485 0.0320434   
     length 2.18139   
     axis 0 0 0   XYZ
    dof rx ry rz
    limits (-20.0 45.0)
           (-30.0 30.0)
           (-30.0 30.0)
  end
  begin
     id 14 
     name lowerneck
     direction 0.00782762 0.986241 0.165128   
     length 1.88415   
     axis 0 0 0   XYZ
    dof rx ry rz
    limits (-20.0 45.0)
           (-30.0 30.0)
           (-30.0 30.0)
  end
  begin
     id 15 
     name upperneck
     direction 0.00988667 0.981098 -0.193258   
     length 1.9242   
     axis 0 0 0   XYZ
    dof rx ry rz
    limits (-20.0 45.0)
           (-30.0 30.0)
           (-30.0 30.0)
  end
  begin
     id 16
     name head
     direction 0.00252199 0.996513 -0.0833958  
     length 1.93887  
     axis 0 0 0   XYZ
    dof rx ry rz
    limits (-20.0 45.0)
           (-30.0 30.0)
           (-30.0 30.0)
  end
  begin
     id 17 
     name lclavicle
     direction 0.929492 0.368193 -0.0218667  
     length 3.5955  
     axis 0 0 0   XYZ
    dof ry rz
    limits (-20.0 10.0)
           (0.0 20.0)
  end
  begin
     id 18 
     name lhumerus
     direction 1 -4.48972e-011 1.41911e-027   
     length 5.2795   
     axis 180 -30 -90   XYZ
    dof rx ry rz
    limits (-60.0 90.0)
           (-90.0 90.0)
           (-90.0 90.0)
  end
  begin
     id 19
     name lradius
     direction 1 -4.48963e-011 7.05772e-027   
     length 3.53504   
     axis 180 -30 -90   XYZ
    dof rx
    limits (-10.0 170.0)
  end
  begin
     id 20
     name lwrist
     direction 1 -4.48957e-011 9.54866e-027   
     length 1.76752   
     axis -7.69462e-015 90 90   XYZ
    dof ry
    limits (-180.0 0.0)
 end
  begin
     id 21 
     name lhand
     direction 1 -4.48979e-011 1.90973e-026   
     length 0.667948   
     axis -1.21857e-014 90 90   XYZ
    dof rx rz
    limits (-90.0 90.0)
           (-45.0 45.0)
  end
  begin
     id 22 
     name lfingers
     direction 1 -4.48987e-011 3.81946e-026   
     length 0.538517   
     axis -2.43714e-014 90 90   XYZ
    dof rx
    limits (0.0 90.0)
  end
  begin
     id 23
     name lthumb
     direction 0.707107 -6.34962e-011 0.707107   
     length 0.773206   
     axis -90 45 2.85299e-015   XYZ
    dof rx rz
    limits (-45.0 45.0)
           (-45.0 45.0)
  end
  begin
     id 24 
     name rclavicle
     direction -0.898763 0.414256 -0.143584   
     length 3.5176  
     axis 0 0 0   XYZ 
    dof ry rz
    limits (-10.0 20.0)
           (-20.0 0.0)
  end
  begin
     id 25 
     name rhumerus
     direction -1 -4.48971e-011 1.129e-027  
     length 5.25035   
     axis 180 30 90   XYZ
    dof rx ry rz
    limits (-90.0 60.0)
           (-90.0 90.0)
           (-90.0 90.0)
  end
  begin
     id 26 
     name rradius
     direction -1 -4.48955e-011 6.34664e-027   
     length 3.58884   
     axis 180 30 90   XYZ
    dof rx
    limits (-10.0 170.0)
  end
  begin
     id 27 
     name rwrist
     direction -1 -4.48966e-011 9.54866e-027   
     length 1.79442   
     axis -7.69462e-015 -90 -90   XYZ
    dof ry
    limits (-180.0 0.0)
  end
  begin
     id 28
     name rhand
     direction -1 -4.48973e-011 1.90973e-026   
     length 0.779235   
     axis -1.21857e-014 -90 -90   XYZ
    dof rx rz
    limits (-90.0 90.0)
           (-45.0 45.0)
  end
  begin
     id 29
     name rfingers
     direction -1 -4.48984e-011 3.81946e-026   
     length 0.62824   
     axis -2.43714e-014 -90 -90   XYZ
    dof rx
    limits (0.0 90.0)
  end
  begin
     id 30
     name rthumb
     direction -0.707107 -6.34968e-011 0.707107   
     length 0.90203   
     axis -90 -45 -2.85299e-015   XYZ
    dof rx rz
    limits (-45.0 45.0)
           (-45.0 45.0)
  end
:hierarchy
  begin
    root lhipjoint rhipjoint lowerback
    lhipjoint lfemur
    lfemur ltibia
    ltibia lfoot
    lfoot ltoes
    rhipjoint rfemur
    rfemur rtibia
    rtibia rfoot
    rfoot rtoes
    lowerback upperback
    upperback thorax
    thorax lowerneck lclavicle rclavicle
    lowerneck upperneck
    upperneck head
    lclavicle lhumerus
    lhumerus lradius
    lradius lwrist
    lwrist lhand lthumb
    lhand lfingers
    rclavicle rhumerus
    rhumerus rradius
    rradius rwrist
    rwrist rhand rthumb
    rhand rfingers
  end

#!OML:ASF I:\Random Stuff\random\construction\7_22_03\Session 2\subj1.ASF
:FULLY-SPECIFIED
:DEGREES
309
root -9.32832 17.6622 -5.85664 -365.319 81.0254 -379.258
lowerback 13.3612 1.67328 -3.15229
upperback 3.03347 1.77769 -2.96052
thorax -4.28824 0.961121 -1.62853
lowerneck -14.8878 4.6017 2.39906
upperneck 31.1923 8.11761 -3.56845
head 13.1961 3.6236 -0.473236
rclavicle -1.66979e-014 0
rhumerus -34.9054 31.9602 -98.8458
rradius 76.7438
rwrist -12.9709
rhand -42.5052 29.5755
rfingers 7.12502
rthumb -15.3818 0.167743
lclavicle -1.66979e-014 0
lhumerus -2.10118 -30.8548 83.0261
lradius 36.5856
lwrist -14.6535
lhand -25.9106 60.9227
lfingers 7.12502
lthumb 0.632051 269.098
rfemur -16.7948 10.1468 12.1055
rtibia 10.4192
rfoot -5.62814 -9.81252
rtoes -23.3393
lfemur -25.8263 -5.2936 -10.8496
ltibia 26.8127
lfoot -16.5966 10.0799
ltoes -27.2732
310
root -9.32904 17.664 -5.85082 -365.854 81.1978 -379.689
lowerback 13.4517 1.56102 -3.15265
upperback 3.09243 1.63195 -2.90553
thorax -4.27778 0.890095 -1.54751
lowerneck -14.8258 4.6777 2.48731
upperneck 31.2295 8.26274 -3.71594
head 13.2172 3.67924 -0.523066
rclavicle 1.82882e-014 9.54166e-015
rhumerus -34.6187 31.4123 -98.5658
rradius 77.5643
rwrist -12.2695
rhand -42.3556 30.7036
rfingers 7.12502
rthumb -15.2377 1.28478
lclavicle 1.82882e-014 9.54166e-015
lhumerus -2.11402 -30.6257 82.9373
lradius 36.6976
lwrist -14.8811
lhand -25.8394 60.9108
lfingers 7.12502
lthumb 0.70082 269.111
rfemur -16.6225 10.1094 12.1844
rtibia 10.4459
rfoot -5.72268 -9.91969
rtoes -22.6411
lfemur -25.7343 -5.57549 -10.7621
ltibia 26.7733
lfoot -16.6258 10.1488
ltoes -26.7744
311
root -9.3317 17.6646 -5.84857 -366.125 81.394 -379.854
lowerback 13.6049 1.48668 -3.15329
upperback 3.11473 1.53023 -2.86018
thorax -4.33942 0.840934 -1.48668
lowerneck -14.7436 4.67615 2.62128
upperneck 31.2977 8.30779 -3.92096
head 13.2489 3.69079 -0.619115
rclavicle -1.03368e-014 -3.18055e-015
rhumerus -34.3158 31.0698 -98.2736
rradius 77.7545
rwrist -11.4909
rhand -42.5004 31.3535
rfingers 7.12502
rthumb -15.3772 1.9453
lclavicle -1.03368e-014 -3.18055e-015
lhumerus -2.11216 -30.6279 82.9231
lradius 36.7132
lwrist -14.8127
lhand -25.7846 60.8048
lfingers 7.12502
lthumb 0.75374 269.217
rfemur -16.4583 10.0082 12.2155
rtibia 10.4605
rfoot -5.78504 -10.0153
rtoes -22.4895
lfemur -25.6559 -5.86047 -10.7392
ltibia 26.7495
lfoot -16.6597 10.2117
ltoes -26.1809
312
root -9.33673 17.6615 -5.85353 -366.665 81.6806 -380.299
lowerback 13.7972 1.35839 -3.03108
upperback 3.10659 1.37028 -2.8182
thorax -4.45167 0.76185 -1.48982
lowerneck -14.6473 4.66437 2.68512
upperneck 31.3526 8.33089 -4.05029
head 13.2633 3.69506 -0.678269
rclavicle 1.74931e-014 -3.97569e-014
rhumerus -34.1243 31.1725 -98.1621
rradius 77.2423
rwrist -10.5009
rhand -43.6065 31.7526
rfingers 7.12502
rthumb -16.4424 2.42939
lclavicle 1.74931e-014 -3.97569e-014
lhumerus -2.17031 -30.5079 82.9875
lradius 36.7069
lwrist -14.7732
lhand -25.7066 60.6795
lfingers 7.12502
lthumb 0.829102 269.342
rfemur -16.3074 9.85962 12.2414
rtibia 10.5071
rfoot -5.81325 -10.1692
rtoes -22.5624
lfemur -25.6423 -6.14663 -10.7269
ltibia 26.7234
lfoot -16.6121 10.201
ltoes -25.8541
313
root -9.34883 17.6641 -5.83775 -365.96 80.8527 -379.86
lowerback 13.5129 1.65441 -3.39591
upperback 2.95595 1.7127 -2.73075
thorax -4.46689 0.930873 -1.24636
lowerneck -14.5533 4.66907 2.70187
upperneck 31.3345 8.36489 -4.13687
head 13.2428 3.70399 -0.711792
rclavicle -1.74931e-014 -5.24792e-014
rhumerus -34.0574 31.633 -98.2325
rradius 76.1118
rwrist -9.44761
rhand -45.3073 33.2698
rfingers 7.12502
rthumb -18.0793 4.09009
lclavicle -1.74931e-014 -5.24792e-014
lhumerus -2.26455 -30.3381 83.0611
lradius 36.6858
lwrist -14.7678
lhand -25.6658 60.4947
lfingers 7.12502
lthumb 0.868559 269.527
rfemur -16.8786 10.2679 12.3255
rtibia 10.5269
rfoot -5.70889 -9.75134
rtoes -22.6003
lfemur -25.7425 -5.57639 -10.5432
ltibia 26.7484
lfoot -16.6297 10.5166
ltoes -26.2209
314
root -9.35436 17.6642 -5.8347 -365.906 80.7519 -379.81
lowerback 13.5244 1.70426 -3.45287
upperback 2.94842 1.77056 -2.68828
thorax -4.48438 0.959744 -1.18032
lowerneck -14.6155 4.65321 2.68631
upperneck 31.2821 8.35633 -4.20027
head 13.2366 3.68855 -0.733696
rclavicle -3.97569e-015 -4.13472e-014
rhumerus -33.8156 32.0296 -98.1685
rradius 74.5838
rwrist -8.90761
rhand -46.2276 32.4983
rfingers 7.12502
rthumb -18.9646 3.40284
lclavicle -3.97569e-015 -4.13472e-014
lhumerus -2.20336 -30.3363 83.0747
lradius 36.6179
lwrist -14.7859
lhand -25.7277 60.2201
lfingers 7.12502
lthumb 0.80874 269.802
rfemur -16.9206 10.281 12.349
rtibia 10.5219
rfoot -5.69127 -9.63246
rtoes -22.7027
lfemur -25.7612 -5.52175 -10.5158
ltibia 26.7959
lfoot -16.623 10.6089
ltoes -26.544
315
root -9.36248 17.665 -5.83004 -365.692 80.4044 -379.693
lowerback 13.391 1.87537 -3.5345
upperback 2.94899 1.99186 -2.65903
thorax -4.41587 1.06825 -1.13698
lowerneck -14.7771 4.59158 2.61211
upperneck 31.2455 8.26729 -4.18321
head 13.2472 3.63848 -0.724747
rclavicle -3.97569e-016 2.54444e-014
rhumerus -33.3993 32.2124 -97.9464
rradius 72.7893
rwrist -8.7042
rhand -46.486 32.1016
rfingers 7.12502
rthumb -19.2131 3.03068
lclavicle -3.97569e-016 2.54444e-014
lhumerus -2.05318 -30.4044 83.0978
lradius 36.5665
lwrist -14.8242
lhand -25.7452 59.9687
lfingers 7.12502
lthumb 0.791804 89.947
rfemur -17.1163 10.3097 12.4153
rtibia 10.4439
rfoot -5.63674 -9.28611
rtoes -22.9759
lfemur -25.8579 -5.21388 -10.4489
ltibia 26.9005
lfoot -16.6352 10.691
ltoes -26.8953
316
root -9.36783 17.6623 -5.82995 -366.468 80.6123 -380.314
lowerback 13.6032 1.8504 -3.41327
upperback 3.0089 1.97137 -2.6143
thorax -4.46627 1.05809 -1.16098
lowerneck -14.8673 4.50213 2.48601
upperneck 31.2221 8.13069 -4.08504
head 13.2388 3.57472 -0.685184
rclavicle -2.98177e-014 2.62396e-014
rhumerus -32.9052 32.2917 -97.7252
rradius 70.6638
rwrist -8.29535
rhand -46.6453 31.1572
rfingers 7.12502
rthumb -19.3663 2.10156
lclavicle -2.98177e-014 2.62396e-014
lhumerus -1.97394 -30.4523 83.162
lradius 36.5976
lwrist -14.781
lhand -25.7314 59.9432
lfingers 7.12502
lthumb 0.805122 89.9214
rfemur -16.884 10.0786 12.563
rtibia 10.4294
rfoot -5.67933 -9.26665
rtoes -23.1573
lfemur -25.821 -5.32671 -10.3879
ltibia 26.9869
lfoot -16.5751 10.5829
ltoes -27.0793
317
root -9.38219 17.661 -5.82219 -366.215 79.9651 -380.196
lowerback 13.4892 2.13976 -3.55955
upperback 2.94369 2.33304 -2.57963
thorax -4.48198 1.236 -1.10258
lowerneck -14.8838 4.41912 2.32948
upperneck 31.2273 7.99274 -3.9049
head 13.221 3.51982 -0.61071
rclavicle -4.57205e-014 2.78299e-014
rhumerus -32.2791 32.2194 -97.4769
rradius 68.3433
rwrist -7.90471
rhand -46.0057 29.2964
rfingers 7.12502
rthumb -18.7512 0.180173
lclavicle -4.57205e-014 2.78299e-014
lhumerus -1.91138 -30.5562 83.1955
lradius 36.6549
lwrist -14.6865
lhand -25.7598 60.1446
lfingers 7.12502
lthumb 0.777778 269.877
rfemur -17.3179 10.1362 12.7275
rtibia 10.5085
rfoot -5.67543 -8.69839
rtoes -23.4425
lfemur -25.861 -4.88252 -10.2227
ltibia 27.0476
lfoot -16.5721 10.7905
ltoes -27.387
